<?xml version="1.0" standalone="no"?><!DOCTYPE svg PUBLIC "-//W3C//DTD SVG 1.1//EN" "http://www.w3.org/Graphics/SVG/1.1/DTD/svg11.dtd"><svg class="icon" width="64px" height="64.00px" viewBox="0 0 1024 1024" version="1.1" xmlns="http://www.w3.org/2000/svg"><path fill="#BFCBD9" d="M510.4 296c-92.8 0-168 75.2-168 168s75.2 168 168 168S678.4 556.8 678.4 464s-75.2-168-168-168z m0 288c-65.6 0-120-54.4-120-120s54.4-120 120-120 120 54.4 120 120-52.8 120-120 120zM486.4 424m-32 0a32 32 0 1 0 64 0 32 32 0 1 0-64 0ZM854.4 768c-14.4-52.8-41.6-99.2-78.4-137.6 30.4-48 48-105.6 48-166.4 0-172.8-139.2-312-312-312S200 291.2 200 464c0 60.8 17.6 118.4 48 166.4-36.8 38.4-64 84.8-78.4 137.6-6.4 24-1.6 49.6 14.4 70.4 16 20.8 41.6 33.6 67.2 33.6h427.2c12.8 0 24-11.2 24-24s-11.2-24-24-24H254.4c-12.8 0-22.4-4.8-30.4-14.4-6.4-8-8-19.2-6.4-28.8 11.2-41.6 32-80 60.8-112 57.6 65.6 140.8 105.6 233.6 105.6 92.8 0 177.6-41.6 233.6-105.6 28.8 32 49.6 68.8 60.8 112 3.2 12.8 16 20.8 28.8 17.6 14.4-3.2 22.4-17.6 19.2-30.4z m-340.8-40c-145.6 0-264-118.4-264-264S368 200 513.6 200 777.6 318.4 777.6 464s-118.4 264-264 264z" /></svg>