<?xml version="1.0" standalone="no"?><!DOCTYPE svg PUBLIC "-//W3C//DTD SVG 1.1//EN" "http://www.w3.org/Graphics/SVG/1.1/DTD/svg11.dtd"><svg class="icon" width="200px" height="200.00px" viewBox="0 0 1024 1024" version="1.1" xmlns="http://www.w3.org/2000/svg"><path fill="#cdcdcd" d="M850.72 322.816a80.128 80.128 0 0 0 21.92-55.2c0-24.192-10.656-45.856-27.488-60.576l11.072-9.632a94.944 94.944 0 0 1 5.472 135.008l-10.976-9.6z m-19.2-16.832l-10.976-9.6a40.32 40.32 0 0 0-6.176-62.432l11.232-9.856a54.72 54.72 0 0 1 5.92 81.888z m-46.272-42.016a10.976 10.976 0 0 1 21.92 0v138.816h-21.856l-0.064-138.816z m-32.832 3.648c0 12.992 6.176 24.512 15.68 31.872l-11.104 9.696a54.72 54.72 0 0 1 2.56-85.152l11.264 9.888a40.128 40.128 0 0 0-18.4 33.696z m-40.032 0c0 23.104 9.792 43.84 25.28 58.432l-11.072 9.696a94.816 94.816 0 0 1 2.496-138.464l11.008 9.664a80.256 80.256 0 0 0-27.712 60.672zM909.984 402.784H303.936c0 86.848-70.4 157.216-157.248 157.216a156.736 156.736 0 0 1-59.52-11.84l-31.392 47.648h963.264l-109.056-193.024zM146.528 435.52a8.8 8.8 0 0 0-8.832 8.768c0 4.768 3.968 8.768 8.8 8.768a8.864 8.864 0 0 0 8.8-8.736 8.8 8.8 0 0 0-8.768-8.8z m-25.056 35.904H171.52v-137.472H121.472v137.472z m25.184-10.784a16.64 16.64 0 0 1-16.608-16.544 16.768 16.768 0 0 1 16.544-16.16 16.416 16.416 0 0 1 16.224 16.384 16.288 16.288 0 0 1-16.16 16.32z m-13.152-106.848c4.352-0.448 8.8-0.16 13.248-0.16 4.224 0 8.544-0.32 12.704 0.16 1.504 0.16 2.816 2.176 4.128 3.328-1.312 1.28-2.56 3.52-3.872 3.616-8.832 0.352-17.696 0.352-26.496 0-1.344-0.096-2.656-2.368-3.968-3.68 1.408-1.088 2.752-3.104 4.256-3.264z m30.176 20.352c-1.696 1.312-3.232 3.456-4.992 3.712-4.032 0.576-8.16 0.16-12.224 0.16-4.096 0-8.256 0.416-12.192-0.16-1.824-0.256-3.328-2.432-4.96-3.744 1.568-1.216 3.104-3.36 4.768-3.424 8.288-0.32 16.64-0.32 24.96 0 1.536 0.064 3.072 2.272 4.64 3.456z m-30.08 13.472c8.48-0.384 16.992-0.384 25.472-0.032 1.568 0.064 3.072 2.336 4.608 3.584-1.536 1.184-2.976 3.232-4.576 3.424-4.384 0.48-8.8 0.192-13.248 0.192-4.096 0-8.192 0.288-12.224-0.192-1.6-0.192-2.912-2.08-4.384-3.2 1.408-1.312 2.784-3.712 4.352-3.776z m70.592 47.52c-3.968 0.128-6.528 2.336-6.656 6.272-0.096 3.968 2.336 6.08 5.6 6.56 4.096 0.096 7.296-2.848 7.392-6.24 0.128-3.36-2.944-6.656-6.336-6.592z m-134.336 27.584H108.16v-109.728H69.856v109.728z m19.072-7.2a13.696 13.696 0 0 1-13.824-13.984 14.08 14.08 0 0 1 14.016-14.016 14.336 14.336 0 0 1 13.952 14.144 14.016 14.016 0 0 1-14.144 13.856z m-10.688-88.352c7.296-0.352 14.56-0.32 21.856 0 1.248 0.064 2.368 2.304 3.552 3.52-1.344 1.216-2.56 3.232-4.032 3.424-3.68 0.512-7.424 0.16-11.168 0.16-3.2 0-6.528 0.352-9.6-0.128-1.536-0.256-2.88-2.048-4.256-3.168 1.152-1.312 2.336-3.712 3.648-3.808z m0.32 13.856a188.48 188.48 0 0 1 20.832 0c1.44 0.032 2.752 2.208 4.16 3.392-1.376 1.28-2.688 3.424-4.288 3.712-3.328 0.608-6.784 0.16-10.176 0.16-3.392 0-6.848 0.448-10.144-0.16-1.632-0.288-2.976-2.432-4.448-3.648 1.344-1.216 2.624-3.424 4.064-3.456z m-0.416 13.792c7.296-0.32 14.592-0.32 21.856 0 1.248 0.064 2.368 2.592 3.52 4-1.312 1.024-2.464 2.816-3.936 2.976-3.68 0.416-7.424 0.128-11.168 0.128-3.36 0-6.784 0.288-10.112-0.16-1.344-0.192-2.56-2.016-3.808-3.104 1.216-1.376 2.368-3.776 3.648-3.84z m10.752 40.352c-3.68 0.256-6.016 2.304-6.24 6.112a6.24 6.24 0 0 0 6.176 6.656 6.272 6.272 0 0 0 6.528-6.4c0.032-3.552-2.912-6.624-6.464-6.368z m95.68 27.52h38.72v-109.792h-38.72v109.792z m19.232-7.168a13.664 13.664 0 0 1-13.696-14.112 14.016 14.016 0 0 1 14.08-13.888 14.08 14.08 0 0 1 13.728 14.24 13.76 13.76 0 0 1-14.112 13.76z m10.848-53.728c-3.456 0.416-7.136 0.16-10.688 0.16-3.552 0-7.136 0.256-10.688-0.16-1.408-0.192-2.624-1.984-3.936-3.072 1.216-1.344 2.4-3.84 3.712-3.904 7.328-0.352 14.656-0.352 21.952 0 1.28 0.064 2.432 2.56 3.68 3.904-1.312 1.12-2.56 2.88-4.032 3.072z m-21.664-34.624c7.296-0.352 14.656-0.352 21.984 0 1.312 0.064 2.496 2.528 3.744 3.872-1.312 1.056-2.528 2.88-3.968 3.072-3.552 0.448-7.168 0.16-10.752 0.16-3.52 0-7.136 0.288-10.656-0.128-1.408-0.192-2.656-1.952-3.968-3.008 1.152-1.376 2.336-3.872 3.616-3.968z m0.608 13.856c6.816-0.448 13.664-0.448 20.448-0.032 1.664 0.064 3.136 2.336 4.672 3.52-1.568 1.312-2.944 3.328-4.608 3.584-3.328 0.608-6.784 0.16-10.208 0.16-3.392 0-6.88 0.32-10.208-0.16-1.568-0.256-2.944-2.112-4.416-3.264 1.472-1.312 2.848-3.744 4.32-3.808zM146.688 265.344a137.408 137.408 0 1 0 0 274.816 137.408 137.408 0 0 0 0-274.816z m80.48 210.144h-42.24c-1.216 7.808-2.656 9.056-10.048 9.056H119.072c-8.192 0-9.44-0.96-11.008-9.056H67.232c-8.672 0-10.144-1.472-10.144-10.048v-115.648c0-8 1.504-9.6 9.472-9.6h42.048c0-4.16-0.064-7.808 0-11.52 0.064-5.248 2.176-7.52 7.424-7.552h60.896c5.312 0 7.296 2.176 7.392 7.456 0.064 3.584 0 7.2 0 11.36 2.048 0.064 3.84 0.256 5.664 0.256l37.376 0.032c6.688 0.032 8.8 2.112 8.8 8.896l0.096 117.216c0.032 7.008-2.176 9.12-9.088 9.152zM55.744 600.352v190.848h963.264v-190.848H55.744z m30.272 139.936a12.928 12.928 0 0 1 0-25.824 12.928 12.928 0 0 1 0 25.824z m-5.696-36.16a5.696 5.696 0 1 1 11.392-0.064 5.696 5.696 0 0 1-11.392 0.064z m20.864-37.728h-30.304v-13.28h30.304v13.28z m316.544 97.504H120.864v-142.368h296.864v142.368z m21.952-35.328l0 0z m0-37.76a12.192 12.192 0 1 1 0-24.416 12.224 12.224 0 0 1 0 24.416z m0-37.696a12.224 12.224 0 1 1-0.064-24.448 12.224 12.224 0 0 1 0.064 24.448z m56.224 69.76h-35.2v-13.088h35.2v13.088z m0-37.76h-35.2v-13.056h35.2v13.056z m0-37.696h-35.2v-13.056h35.2v13.056z m420.896 91.584a54.496 54.496 0 1 1 0-108.992 54.496 54.496 0 0 1 0 108.992z m0-86.336a31.776 31.776 0 1 0 0.064 63.552 31.776 31.776 0 0 0-0.064-63.552z m0 47.744a15.904 15.904 0 1 1 0.064-31.808 15.904 15.904 0 0 1-0.064 31.808z" /></svg>